<svg width="1440" height="197" viewBox="0 0 1440 197" fill="none" xmlns="http://www.w3.org/2000/svg">
<g opacity="0.8">
<path d="M-18 72.835L9.33305 71.1517C36.6661 69.4711 91.3322 66.1045 146.001 73.6753C200.667 81.2462 255.333 99.7545 309.999 94.7073C364.668 89.66 419.334 61.0572 474 45.9155C528.666 30.7738 583.332 29.0932 638.001 39.1876C692.667 49.2821 747.333 71.1517 801.999 81.2462C856.668 91.3407 911.334 89.66 966 77.0419C1020.67 64.4238 1075.33 40.8683 1130 25.7266C1184.67 10.5849 1239.33 3.85697 1294 1.33335C1348.67 -1.19027 1403.33 0.490383 1430.67 1.33335L1458 2.17368V411H1430.67C1403.33 411 1348.67 411 1294 411C1239.33 411 1184.67 411 1130 411C1075.33 411 1020.67 411 966 411C911.334 411 856.668 411 801.999 411C747.333 411 692.667 411 638.001 411C583.332 411 528.666 411 474 411C419.334 411 364.668 411 309.999 411C255.333 411 200.667 411 146.001 411C91.3322 411 36.6661 411 9.33305 411H-18V72.835Z" fill="#002B15"/>
<path d="M-18 108.166L9.33305 119.943C36.6661 131.719 91.3322 155.274 146.001 149.384C200.667 143.496 255.333 108.166 309.999 102.278C364.668 96.3879 419.334 119.943 474 123.307C528.666 126.671 583.332 109.849 638.001 116.577C692.667 123.307 747.333 153.591 801.999 162.002C856.668 170.416 911.334 156.955 966 153.591C1020.67 150.227 1075.33 156.955 1130 156.955C1184.67 156.955 1239.33 150.227 1294 143.496C1348.67 136.766 1403.33 130.038 1430.67 126.671L1458 123.307V411H1430.67C1403.33 411 1348.67 411 1294 411C1239.33 411 1184.67 411 1130 411C1075.33 411 1020.67 411 966 411C911.334 411 856.668 411 801.999 411C747.333 411 692.667 411 638.001 411C583.332 411 528.666 411 474 411C419.334 411 364.668 411 309.999 411C255.333 411 200.667 411 146.001 411C91.3322 411 36.6661 411 9.33305 411H-18V108.166Z" fill="#002B15"/>
<path d="M-18 108.166L9.33305 119.943C36.6661 131.719 91.3322 155.274 146.001 149.384C200.667 143.496 255.333 108.166 309.999 102.278C364.668 96.3879 419.334 119.943 474 123.307C528.666 126.671 583.332 109.849 638.001 116.577C692.667 123.307 747.333 153.591 801.999 162.002C856.668 170.416 911.334 156.955 966 153.591C1020.67 150.227 1075.33 156.955 1130 156.955C1184.67 156.955 1239.33 150.227 1294 143.496C1348.67 136.766 1403.33 130.038 1430.67 126.671L1458 123.307" fill="#002B15"/>
<path d="M-18 108.166L9.33305 119.943C36.6661 131.719 91.3322 155.274 146.001 149.384C200.667 143.496 255.333 108.166 309.999 102.278C364.668 96.3879 419.334 119.943 474 123.307C528.666 126.671 583.332 109.849 638.001 116.577C692.667 123.307 747.333 153.591 801.999 162.002C856.668 170.416 911.334 156.955 966 153.591C1020.67 150.227 1075.33 156.955 1130 156.955C1184.67 156.955 1239.33 150.227 1294 143.496C1348.67 136.766 1403.33 130.038 1430.67 126.671L1458 123.307" stroke="#607168" stroke-width="2"/>
<path d="M-18 234.347L9.33305 228.459C36.6661 222.569 91.3322 210.794 146.001 210.794C200.667 210.794 255.333 222.569 309.999 224.252C364.668 225.935 419.334 217.522 474 206.587C528.666 195.652 583.332 182.191 638.001 180.51C692.667 178.827 747.333 188.921 801.999 202.38C856.668 215.841 911.334 232.663 966 236.87C1020.67 241.077 1075.33 232.663 1130 219.205C1184.67 205.746 1239.33 187.238 1294 183.874C1348.67 180.51 1403.33 192.285 1430.67 198.176L1458 204.063V411H1430.67C1403.33 411 1348.67 411 1294 411C1239.33 411 1184.67 411 1130 411C1075.33 411 1020.67 411 966 411C911.334 411 856.668 411 801.999 411C747.333 411 692.667 411 638.001 411C583.332 411 528.666 411 474 411C419.334 411 364.668 411 309.999 411C255.333 411 200.667 411 146.001 411C91.3322 411 36.6661 411 9.33305 411H-18V234.347Z" fill="#002B15"/>
<path d="M-18 234.347L9.33305 228.459C36.6661 222.569 91.3322 210.794 146.001 210.794C200.667 210.794 255.333 222.569 309.999 224.252C364.668 225.935 419.334 217.522 474 206.587C528.666 195.652 583.332 182.191 638.001 180.51C692.667 178.827 747.333 188.921 801.999 202.38C856.668 215.841 911.334 232.663 966 236.87C1020.67 241.077 1075.33 232.663 1130 219.205C1184.67 205.746 1239.33 187.238 1294 183.874C1348.67 180.51 1403.33 192.285 1430.67 198.176L1458 204.063" fill="#002B15"/>
<path d="M-18 234.347L9.33305 228.459C36.6661 222.569 91.3322 210.794 146.001 210.794C200.667 210.794 255.333 222.569 309.999 224.252C364.668 225.935 419.334 217.522 474 206.587C528.666 195.652 583.332 182.191 638.001 180.51C692.667 178.827 747.333 188.921 801.999 202.38C856.668 215.841 911.334 232.663 966 236.87C1020.67 241.077 1075.33 232.663 1130 219.205C1184.67 205.746 1239.33 187.238 1294 183.874C1348.67 180.51 1403.33 192.285 1430.67 198.176L1458 204.063" stroke="#607168" stroke-width="2"/>
</g>
</svg>
